<?xml version="1.0" standalone="no"?>
<!DOCTYPE svg PUBLIC "-//W3C//DTD SVG 20010904//EN"
 "http://www.w3.org/TR/2001/REC-SVG-20010904/DTD/svg10.dtd">
<svg version="1.0" xmlns="http://www.w3.org/2000/svg"
 width="512.000000pt" height="512.000000pt" viewBox="0 0 512.000000 512.000000"
 preserveAspectRatio="xMidYMid meet">

<g transform="translate(0.000000,512.000000) scale(0.100000,-0.100000)"
fill="#000000" stroke="none">
<path d="M1750 5109 c-106 -16 -275 -78 -366 -133 -261 -159 -424 -379 -496
-673 -28 -115 -30 -329 -4 -448 52 -235 182 -447 366 -596 98 -80 267 -168
379 -199 439 -119 904 55 1153 430 400 603 88 1417 -611 1597 -110 28 -312 39
-421 22z"/>
<path d="M3560 2738 c-64 -33 -85 -81 -104 -245 -9 -73 -16 -134 -16 -136 0
-3 -33 -20 -72 -39 -40 -19 -104 -56 -141 -82 l-68 -47 -132 57 c-143 60 -198
69 -254 40 -38 -19 -49 -34 -145 -201 -108 -186 -118 -209 -118 -258 0 -64 29
-99 161 -199 l115 -88 -8 -80 c-4 -44 -4 -116 0 -160 l8 -80 -115 -88 c-143
-108 -164 -137 -159 -212 4 -47 17 -77 97 -215 118 -203 131 -219 186 -240 57
-22 75 -18 234 50 l129 55 68 -47 c38 -25 101 -61 140 -80 81 -39 73 -21 95
-215 14 -125 35 -172 94 -205 38 -22 51 -23 254 -23 197 0 218 2 257 21 66 31
82 67 100 216 22 182 17 170 80 198 30 13 93 49 139 79 l85 55 117 -50 c155
-65 183 -72 232 -59 58 15 85 49 195 240 148 258 145 280 -52 428 l-117 89 1
164 1 164 119 90 c194 147 196 166 48 424 -108 188 -139 226 -196 241 -48 13
-67 9 -221 -57 l-128 -54 -75 50 c-41 28 -104 64 -139 81 -74 35 -67 21 -89
204 -18 148 -35 183 -102 216 -36 18 -61 20 -250 20 -198 0 -212 -1 -254 -22z
m426 -1012 c83 -42 139 -98 181 -185 25 -50 28 -67 28 -161 0 -94 -3 -111 -28
-161 -42 -86 -98 -143 -180 -184 -163 -80 -341 -47 -461 86 -82 91 -118 211
-96 322 51 264 318 400 556 283z"/>
<path d="M1628 2715 c-879 -143 -1529 -829 -1618 -1710 -7 -66 -10 -250 -8
-460 l3 -350 31 -55 c33 -60 99 -112 162 -130 24 -6 544 -10 1529 -10 l1491 0
-13 53 c-7 28 -16 80 -20 114 -6 54 -10 63 -34 72 -23 10 -38 7 -100 -19 -150
-61 -273 -61 -399 1 -100 49 -153 112 -269 315 -139 243 -146 260 -151 371 -8
160 48 276 182 380 68 52 75 61 75 93 0 32 -7 40 -67 85 -78 59 -133 128 -164
205 -18 45 -22 75 -23 165 0 131 -1 128 148 389 114 200 169 266 263 312 l57
28 -44 19 c-91 40 -248 88 -364 113 -105 23 -149 27 -350 30 -166 2 -254 -1
-317 -11z"/>
</g>
</svg>
