<?xml version="1.0" standalone="no"?>
<!DOCTYPE svg PUBLIC "-//W3C//DTD SVG 20010904//EN"
 "http://www.w3.org/TR/2001/REC-SVG-20010904/DTD/svg10.dtd">
<svg version="1.0" xmlns="http://www.w3.org/2000/svg"
 width="512.000000pt" height="512.000000pt" viewBox="0 0 512.000000 512.000000"
 preserveAspectRatio="xMidYMid meet">

<g transform="translate(0.000000,512.000000) scale(0.100000,-0.100000)"
fill="#000000" stroke="none">
<path d="M2785 4616 c-154 -50 -261 -169 -294 -324 -6 -29 -11 -120 -11 -202
l0 -150 -140 0 -140 0 0 -170 0 -169 -42 -11 c-174 -44 -392 -146 -547 -258
-122 -86 -278 -242 -363 -363 -536 -753 -348 -1780 419 -2297 87 -59 262 -144
370 -181 401 -137 854 -109 1231 76 578 283 939 889 908 1525 -29 592 -365
1112 -891 1376 -95 48 -230 99 -322 122 l-43 11 0 169 0 170 -140 0 -140 0 0
168 c0 161 1 170 26 220 50 100 142 152 268 152 77 0 119 -12 178 -49 56 -36
105 -114 113 -181 21 -180 44 -243 121 -329 31 -34 70 -63 122 -88 l76 -38
130 0 c127 0 133 1 197 32 82 40 170 130 206 210 34 76 44 194 19 222 -25 28
-62 34 -96 16 -30 -16 -34 -25 -45 -104 -11 -80 -71 -163 -150 -203 -89 -46
-241 -31 -318 32 -63 53 -87 106 -103 227 -24 182 -98 294 -241 365 -64 31
-73 33 -193 35 -82 2 -139 -2 -165 -11z m-305 -1451 c0 -123 9 -157 47 -174
37 -17 52 -14 84 18 29 29 29 30 29 150 l0 121 36 0 c54 0 224 -37 306 -66
130 -47 279 -132 383 -217 l30 -25 -87 -90 c-78 -79 -88 -94 -88 -125 0 -44
31 -77 73 -77 24 0 48 18 122 91 l93 90 59 -78 c135 -180 226 -405 248 -615
l7 -68 -126 0 c-121 0 -128 -1 -151 -25 -31 -30 -32 -71 -3 -102 20 -22 29
-23 150 -23 149 0 138 13 113 -136 -38 -216 -131 -425 -258 -577 l-40 -48 -88
87 c-79 79 -92 88 -125 88 -44 0 -74 -31 -74 -77 0 -26 15 -47 86 -118 54 -54
84 -91 79 -99 -15 -24 -163 -127 -242 -168 -105 -55 -264 -107 -383 -127 -52
-8 -101 -15 -107 -15 -10 0 -13 32 -13 125 0 120 -1 127 -25 150 -29 30 -74
32 -106 6 -23 -18 -24 -27 -27 -150 -3 -92 -7 -131 -15 -131 -7 0 -55 7 -107
15 -215 35 -449 141 -595 269 l-40 35 88 88 c77 78 87 93 87 124 0 54 -47 87
-98 68 -15 -5 -63 -46 -108 -90 l-81 -80 -31 35 c-122 140 -231 375 -267 580
-25 148 -33 136 94 136 114 0 155 9 177 38 21 27 16 70 -11 97 -23 24 -30 25
-150 25 l-125 0 0 30 c0 45 36 218 60 290 30 89 79 194 125 266 51 80 115 164
127 164 5 0 47 -38 94 -85 74 -74 90 -85 120 -85 46 0 74 29 74 76 0 32 -10
47 -87 126 l-88 90 30 25 c105 86 255 171 385 217 89 32 238 64 298 65 l42 1
0 -115z"/>
<path d="M2501 2814 c-20 -26 -21 -38 -21 -314 l0 -288 40 10 c27 7 53 7 80 0
l40 -10 0 288 c0 276 -1 288 -21 314 -16 20 -29 26 -59 26 -30 0 -43 -6 -59
-26z"/>
<path d="M2187 1762 c-162 -163 -177 -181 -177 -213 0 -44 34 -79 75 -79 24 0
60 31 211 181 l183 182 -32 21 c-18 12 -41 36 -52 53 -11 18 -22 32 -25 33 -3
0 -85 -80 -183 -178z"/>
</g>
</svg>
