<?xml version="1.0" standalone="no"?>
<!DOCTYPE svg PUBLIC "-//W3C//DTD SVG 20010904//EN"
 "http://www.w3.org/TR/2001/REC-SVG-20010904/DTD/svg10.dtd">
<svg version="1.0" xmlns="http://www.w3.org/2000/svg"
 width="64.000000pt" height="64.000000pt" viewBox="0 0 64.000000 64.000000"
 preserveAspectRatio="xMidYMid meet">

<g transform="translate(0.000000,64.000000) scale(0.100000,-0.100000)"
fill="#000000" stroke="none">
<path d="M44 628 c-12 -5 -27 -21 -33 -34 -15 -34 -15 -514 0 -548 18 -39 53
-47 194 -44 126 3 130 4 133 26 3 22 2 22 -127 22 -104 0 -133 3 -145 16 -24
23 -24 485 0 508 12 13 41 16 145 16 129 0 130 0 127 23 -3 21 -6 22 -138 24
-78 1 -144 -2 -156 -9z"/>
<path d="M430 483 c0 -10 26 -43 57 -75 l57 -58 -150 0 c-118 0 -154 -3 -170
-15 -19 -15 -19 -15 0 -30 16 -12 52 -15 170 -15 l150 0 -57 -58 c-57 -58 -72
-92 -39 -92 21 0 192 160 192 180 0 20 -171 180 -192 180 -10 0 -18 -7 -18
-17z"/>
</g>
</svg>
