<?xml version="1.0" standalone="no"?>
<!DOCTYPE svg PUBLIC "-//W3C//DTD SVG 20010904//EN"
 "http://www.w3.org/TR/2001/REC-SVG-20010904/DTD/svg10.dtd">
<svg version="1.0" xmlns="http://www.w3.org/2000/svg"
 width="64.000000pt" height="64.000000pt" viewBox="0 0 64.000000 64.000000"
 preserveAspectRatio="xMidYMid meet">

<g transform="translate(0.000000,64.000000) scale(0.100000,-0.100000)"
fill="#000000" stroke="none">
<path d="M247 634 c-4 -4 -7 -58 -7 -120 l0 -113 -117 -3 -118 -3 0 -75 0 -75
117 -3 117 -3 3 -117 3 -117 75 0 75 0 3 117 3 117 117 3 117 3 0 75 0 75
-117 3 -117 3 -3 117 -3 117 -70 3 c-39 1 -74 0 -78 -4z"/>
</g>
</svg>
