<?xml version="1.0" standalone="no"?>
<!DOCTYPE svg PUBLIC "-//W3C//DTD SVG 20010904//EN"
 "http://www.w3.org/TR/2001/REC-SVG-20010904/DTD/svg10.dtd">
<svg version="1.0" xmlns="http://www.w3.org/2000/svg"
 width="512.000000pt" height="512.000000pt" viewBox="0 0 512.000000 512.000000"
 preserveAspectRatio="xMidYMid meet">

<g transform="translate(0.000000,512.000000) scale(0.100000,-0.100000)"
fill="#000000" stroke="none">
<path d="M493 4842 c-106 -37 -200 -140 -223 -245 -8 -37 -10 -424 -8 -1367
l3 -1315 27 -56 c35 -70 97 -132 168 -167 54 -27 59 -27 278 -30 l222 -3 0
-359 c0 -257 3 -367 12 -385 19 -42 79 -66 122 -49 9 3 238 183 509 400 l492
394 482 0 482 0 3 -548 3 -548 37 -76 c45 -91 103 -147 196 -191 61 -29 76
-32 162 -32 86 0 101 3 162 32 93 44 151 100 196 191 l37 76 3 548 3 547 372
3 372 3 57 28 c72 35 130 93 165 165 l28 57 0 1345 0 1345 -28 57 c-35 72 -93
130 -165 165 l-57 28 -2030 2 c-1928 2 -2033 2 -2082 -15z m4098 -205 c74 -49
69 57 69 -1377 0 -1204 -1 -1287 -18 -1319 -9 -19 -30 -44 -45 -55 -27 -20
-43 -21 -383 -24 l-354 -3 0 264 0 264 -164 275 c-165 275 -183 298 -236 298
-53 0 -71 -23 -236 -298 l-164 -275 0 -263 0 -264 -512 0 c-487 0 -514 -1
-543 -19 -16 -11 -212 -165 -435 -344 l-405 -325 -5 311 c-3 172 -9 320 -14
330 -20 42 -52 47 -318 47 -283 0 -302 4 -345 69 l-23 34 0 1296 c0 1276 0
1297 20 1329 11 18 34 41 52 52 33 20 55 20 2029 20 l1996 0 34 -23z m-1069
-2075 l57 -97 -59 -3 c-33 -2 -87 -2 -120 0 l-59 3 57 97 c31 54 59 98 62 98
3 0 31 -44 62 -98z m138 -1002 l0 -700 -200 0 -200 0 0 700 0 700 200 0 200 0
0 -700z m-5 -937 c-9 -52 -46 -106 -92 -134 -54 -34 -152 -34 -206 0 -46 28
-83 82 -92 134 l-7 37 202 0 202 0 -7 -37z"/>
<path d="M911 4246 c-67 -37 -65 -143 4 -174 20 -9 411 -12 1646 -12 1383 0
1624 2 1648 14 66 35 66 137 0 172 -40 20 -3261 21 -3298 0z"/>
<path d="M911 3646 c-67 -37 -65 -143 4 -174 20 -9 411 -12 1646 -12 1383 0
1624 2 1648 14 66 35 66 137 0 172 -40 20 -3261 21 -3298 0z"/>
<path d="M911 3046 c-67 -37 -65 -143 4 -174 19 -9 265 -12 996 -12 820 0 974
2 998 14 66 35 66 137 0 172 -40 20 -1961 20 -1998 0z"/>
</g>
</svg>
