<?xml version="1.0" standalone="no"?>
<!DOCTYPE svg PUBLIC "-//W3C//DTD SVG 20010904//EN"
 "http://www.w3.org/TR/2001/REC-SVG-20010904/DTD/svg10.dtd">
<svg version="1.0" xmlns="http://www.w3.org/2000/svg"
 width="512.000000pt" height="512.000000pt" viewBox="0 0 512.000000 512.000000"
 preserveAspectRatio="xMidYMid meet">

<g transform="translate(0.000000,512.000000) scale(0.100000,-0.100000)"
fill="#000000" stroke="none">
<path d="M2156 4869 c-31 -25 -32 -38 -7 -182 20 -120 36 -147 86 -147 38 0
75 35 75 71 0 14 -9 75 -20 135 -15 84 -24 113 -41 127 -28 23 -60 22 -93 -4z"/>
<path d="M2871 4873 c-17 -14 -26 -43 -41 -127 -11 -60 -20 -121 -20 -136 0
-38 34 -70 74 -70 51 0 67 26 87 147 25 144 24 157 -7 182 -33 26 -65 27 -93
4z"/>
<path d="M1493 4648 c-12 -6 -27 -24 -34 -40 -11 -27 -8 -37 41 -131 64 -125
83 -147 126 -147 36 0 74 37 74 72 0 29 -108 225 -133 243 -25 17 -43 18 -74
3z"/>
<path d="M3553 4645 c-28 -19 -133 -215 -133 -247 0 -33 39 -68 76 -68 41 0
61 24 124 147 49 94 52 104 41 131 -12 28 -46 52 -74 52 -7 0 -22 -7 -34 -15z"/>
<path d="M915 4195 c-46 -45 -36 -70 67 -168 51 -48 104 -91 117 -94 54 -13
107 50 84 100 -6 13 -52 61 -102 106 -100 89 -125 98 -166 56z"/>
<path d="M4035 4134 c-53 -48 -98 -97 -101 -111 -13 -52 37 -103 88 -90 13 4
65 46 116 94 103 98 113 123 67 168 -41 42 -66 33 -170 -61z"/>
<path d="M2405 4069 c-141 -18 -315 -78 -440 -151 -361 -212 -583 -568 -611
-980 l-7 -97 -551 -3 c-546 -3 -551 -3 -599 -25 -75 -35 -121 -77 -158 -145
l-34 -63 0 -765 c0 -728 1 -767 19 -814 22 -58 83 -128 140 -161 74 -42 123
-45 853 -45 590 0 698 2 722 15 46 23 55 76 21 113 l-21 22 -712 0 c-459 0
-725 4 -749 10 -48 14 -97 55 -114 97 -20 48 -21 1458 0 1506 20 49 78 95 128
102 24 3 275 5 558 3 l514 -3 13 -62 c32 -159 122 -356 218 -478 151 -192 189
-248 236 -338 59 -115 93 -201 121 -311 18 -71 21 -126 28 -436 7 -322 9 -361
28 -420 60 -185 196 -319 392 -386 86 -29 254 -26 342 8 98 37 173 85 233 150
90 97 136 194 156 334 l11 74 827 0 c548 0 847 4 887 11 106 19 202 97 240
195 18 47 19 86 19 814 l0 765 -27 52 c-37 70 -89 120 -157 152 l-56 26 -551
3 -551 3 -7 95 c-16 231 -109 504 -179 529 -36 12 -78 -9 -91 -47 -7 -21 -2
-43 27 -110 116 -272 126 -538 27 -809 -42 -117 -104 -220 -207 -341 -191
-227 -290 -436 -337 -707 -9 -52 -16 -109 -16 -128 l0 -33 -106 0 c-96 0 -105
2 -100 18 3 9 37 164 76 344 74 344 75 364 31 387 -31 17 -58 13 -85 -11 -22
-20 -33 -63 -100 -375 -42 -194 -76 -355 -76 -358 0 -3 -31 -5 -70 -5 -38 0
-70 2 -70 5 0 3 -34 164 -76 358 -67 312 -78 355 -100 375 -27 24 -54 28 -85
11 -44 -23 -43 -43 31 -387 39 -180 73 -335 76 -344 5 -16 -4 -18 -99 -18
l-104 0 -7 66 c-29 284 -142 543 -346 794 -106 132 -169 236 -210 347 -52 146
-63 212 -63 378 0 187 25 295 107 460 110 222 281 388 507 494 379 178 831
109 1148 -174 68 -60 93 -67 135 -34 19 15 26 30 26 54 0 27 -10 42 -63 92
-246 230 -615 346 -962 302z m2445 -1389 c41 -11 94 -61 109 -103 8 -19 11
-265 11 -748 0 -585 -3 -726 -14 -752 -17 -42 -66 -83 -114 -97 -24 -6 -328
-10 -871 -10 l-833 0 4 227 c5 205 8 238 31 325 54 206 135 361 269 519 108
127 151 193 210 315 38 79 92 247 108 332 1 8 1061 0 1090 -8z m-1862 -1622
l-3 -83 -425 0 -425 0 -3 83 -3 82 431 0 431 0 -3 -82z m-3 -285 c-4 -27 -11
-63 -17 -80 l-10 -33 -398 0 -398 0 -10 33 c-6 17 -13 53 -17 80 l-6 47 431 0
431 0 -6 -47z m-155 -294 c-88 -75 -221 -111 -336 -92 -75 13 -153 48 -204 92
l-35 30 305 0 305 0 -35 -30z"/>
<path d="M3815 2253 c-91 -47 -134 -140 -113 -240 8 -37 24 -60 85 -124 l74
-78 -68 -71 c-79 -82 -95 -115 -95 -186 1 -117 89 -204 207 -204 67 0 108 22
186 97 l70 67 67 -67 c37 -36 84 -73 104 -82 134 -55 287 47 288 193 0 63 -22
106 -96 183 l-67 69 70 74 c78 82 98 124 91 196 -11 110 -83 181 -191 188 -82
5 -115 -9 -203 -91 l-71 -66 -59 61 c-32 33 -77 69 -99 79 -49 23 -139 24
-180 2z m215 -228 c83 -83 99 -95 129 -95 29 0 47 12 130 95 102 99 126 111
163 78 36 -33 23 -60 -79 -164 -79 -81 -96 -104 -96 -129 0 -25 17 -48 96
-129 101 -102 113 -127 80 -163 -33 -37 -61 -23 -164 77 -83 82 -101 95 -130
95 -28 0 -46 -13 -130 -95 -99 -98 -124 -110 -163 -82 -40 29 -24 63 78 166
82 84 96 103 96 131 0 28 -14 47 -96 131 -71 72 -96 104 -96 123 0 36 19 56
56 56 26 0 46 -15 126 -95z"/>
<path d="M522 3597 c-27 -28 -28 -67 -4 -95 19 -23 213 -112 244 -112 53 0 88
52 68 101 -12 28 -47 48 -180 104 -74 31 -100 31 -128 2z"/>
<path d="M4450 3586 c-134 -58 -148 -67 -160 -95 -20 -49 15 -101 68 -101 31
0 225 88 245 111 24 29 21 71 -6 97 -31 30 -59 27 -147 -12z"/>
<path d="M1901 3362 c-71 -38 -71 -40 -71 -482 0 -374 1 -397 20 -427 39 -65
13 -63 712 -63 616 0 634 1 666 20 61 37 62 48 62 477 0 357 -1 391 -18 422
-36 66 -58 71 -323 71 -256 0 -290 -5 -356 -56 l-33 -25 -33 25 c-66 51 -100
56 -356 56 -210 0 -240 -2 -270 -18z m518 -146 c60 -32 61 -36 61 -371 l0
-305 -250 0 -250 0 0 345 0 345 205 0 c160 0 212 -3 234 -14z m721 -331 l0
-345 -250 0 -250 0 0 305 c0 267 2 309 16 331 33 49 53 53 277 54 l207 0 0
-345z"/>
<path d="M1146 2226 c-28 -11 -87 -63 -201 -176 l-161 -160 -39 40 c-22 23
-64 53 -93 67 -45 22 -61 25 -109 20 -150 -16 -236 -181 -161 -308 33 -55 261
-280 308 -304 46 -24 134 -24 180 -1 42 21 504 478 527 521 54 101 19 230 -77
284 -51 28 -124 35 -174 17z m104 -154 c50 -41 39 -58 -201 -299 -123 -124
-234 -229 -247 -234 -16 -6 -31 -5 -50 5 -32 17 -225 212 -241 243 -20 40 9
83 56 83 9 0 53 -36 99 -80 122 -117 105 -122 339 110 105 105 199 190 207
190 9 0 26 -8 38 -18z"/>
</g>
</svg>
